<svg id="Layer_1" data-name="Layer 1" xmlns="http://www.w3.org/2000/svg" viewBox="0 0 39.68 59.53"><defs><style>.cls-1{fill:#fff;}</style></defs><title>ESRB_ICON_M</title><rect x="0.29" y="0.32" width="39.11" height="58.89"/><path class="cls-1" d="M39.11,0.64V58.89H0.58V0.64H39.11M39.68,0H0V59.53H39.68V0h0Z"/><rect class="cls-1" x="2.52" y="2.71" width="34.37" height="9.66"/><rect class="cls-1" x="2.5" y="14.47" width="34.39" height="35.51"/><polygon class="cls-1" points="2.51 56.79 2.51 52.08 9.41 52.08 9.41 53.18 5.28 53.18 5.28 53.85 8.78 53.85 8.78 54.95 5.28 54.95 5.28 55.69 9.57 55.69 9.57 56.79 2.51 56.79"/><path class="cls-1" d="M15.44,53.45a0.52,0.52,0,0,0-.4-0.32A2.5,2.5,0,0,0,14.32,53c-0.61,0-.88.1-0.88,0.28,0,0.7,4.87.26,4.87,2,0,1.09-1.64,1.63-4,1.63s-3.69-.73-3.75-1.58h2.66a0.67,0.67,0,0,0,.46.37,2.52,2.52,0,0,0,.79.12c0.69,0,1.15-.12,1.15-0.35,0-.71-4.87-0.22-4.87-2,0-1,1.55-1.5,3.67-1.5,2.35,0,3.42.67,3.63,1.49H15.44Z"/><path class="cls-1" d="M22.46,54.12h1.09c0.86,0,1.32-.12,1.32-0.45s-0.47-.49-1.12-0.49H22.46v0.94Zm0,1v1.64H19.69V52.08h4c2.82,0,3.75.43,3.75,1.35,0,0.54-.43,1-1.42,1.16,0.89,0.18,1.44.29,1.44,1.24,0,0.61,0,.83.29,0.83v0.14H24.93A1.81,1.81,0,0,1,24.79,56c0-.62-0.19-0.82-1.48-0.82H22.46Z"/><path class="cls-1" d="M31.91,53.18V54h1.16c0.55,0,1-.14,1-0.41s-0.55-.38-1.13-0.38h-1Zm0,1.64v0.87h1.21c0.69,0,1.2-.08,1.2-0.43s-0.64-.44-1.53-0.44H31.91Zm-2.77,2V52.08h4c1.91,0,3.42.26,3.42,1.19a1.39,1.39,0,0,1-1.11,1c0.92,0.13,1.41.57,1.41,1.08,0,1.05-1.44,1.42-3.64,1.42H29.14Z"/><path d="M34,47c0.32,0,.4-0.14.4-0.29s-0.08-.24-0.35-0.24H33.59V47H34Zm-0.37.32V48.2H33.25V46.14H34a0.66,0.66,0,0,1,.82.57,0.49,0.49,0,0,1-.44.48h0a0.39,0.39,0,0,1,.37.41,2.79,2.79,0,0,0,.13.59H34.4c0-.11-0.06-0.25-0.07-0.37a0.72,0.72,0,0,0-.12-0.44,0.52,0.52,0,0,0-.32-0.08H33.59m1.95-.12a1.55,1.55,0,0,0-3.1,0,1.55,1.55,0,0,0,3.1,0m-3.43,0A1.89,1.89,0,1,1,34,48.95a1.82,1.82,0,0,1-1.89-1.75"/><polygon points="3.75 23.27 14.29 20.43 20.31 34.59 20.36 34.57 18.55 19.29 29.09 16.45 35.67 41.19 29.25 42.91 24.54 25.23 24.49 25.24 26.48 43.65 19.52 45.53 12.11 28.58 12.06 28.59 16.75 46.27 10.33 48 3.75 23.27"/><path d="M3.47,10.26V4.79H5L5.75,8.51h0L6.52,4.79H8v5.47H7.09V6h0L6.19,10.26H5.27L4.42,6h0v4.22H3.47Z"/><path d="M8.46,10.26L9.74,4.79H11l1.25,5.47h-1L11,9.05H9.68L9.41,10.26h-1Zm1.86-4.42h0L9.87,8.21h0.92Z"/><path d="M15.08,4.79V5.7H14v4.56H13V5.7H12V4.79h3.11Z"/><path d="M18.65,4.79V8.67a2.39,2.39,0,0,1-.08.61,1.57,1.57,0,0,1-.26.54,1.35,1.35,0,0,1-.48.39,1.69,1.69,0,0,1-.74.15A1.47,1.47,0,0,1,15.9,9.9a1.83,1.83,0,0,1-.39-1.23V4.79h1V8.6a1.24,1.24,0,0,0,.16.72,0.52,0.52,0,0,0,.43.22,0.51,0.51,0,0,0,.47-0.24,1.35,1.35,0,0,0,.15-0.7V4.79h1Z"/><path d="M20.38,10.26h-1V4.79H21.2a1,1,0,0,1,.79.37,1.69,1.69,0,0,1,.29,1.07,1.84,1.84,0,0,1-.2.89,0.89,0.89,0,0,1-.66.46v0l0.22,0a0.69,0.69,0,0,1,.28.14,0.88,0.88,0,0,1,.24.31,1.3,1.3,0,0,1,.1.58c0,0.09,0,.21,0,0.36s0,0.32,0,.49,0,0.32,0,.46a1.29,1.29,0,0,0,.05.3H21.42a1.49,1.49,0,0,1-.1-0.52c0-.18,0-0.36,0-0.54s0-.32,0-0.46a1.18,1.18,0,0,0-.06-0.38,0.55,0.55,0,0,0-.21-0.26A0.74,0.74,0,0,0,20.63,8H20.38v2.27Zm0-3.11h0.43A0.37,0.37,0,0,0,21,7.08a0.59,0.59,0,0,0,.15-0.19,0.86,0.86,0,0,0,.08-0.26,2,2,0,0,0,0-.27,0.9,0.9,0,0,0-.13-0.56,0.44,0.44,0,0,0-.36-0.16H20.38V7.16Z"/><path d="M23,10.26V4.79h2.52V5.63H24V7h1.43V7.82H24v1.6h1.6v0.84H23Z"/><path d="M27.52,5.62A4.14,4.14,0,0,0,28,5.24a2.29,2.29,0,0,0,.39-0.48h0.86v5.5h-1V6a3.22,3.22,0,0,1-.36.33l-0.39.28v-1Z"/><path d="M32.63,5.81l-1.09,4.45h-1l1.22-4.65H30.24V4.76h2.4v1Z"/><path d="M34.12,5.85h0.71V7.35h1.08V8.19H34.83V9.68H34.12V8.19H33V7.35h1.09V5.85Z"/></svg>