<?xml version="1.0" encoding="utf-8"?>
<!-- Generator: Adobe Illustrator 18.0.0, SVG Export Plug-In . SVG Version: 6.00 Build 0)  -->
<!DOCTYPE svg PUBLIC "-//W3C//DTD SVG 1.1//EN" "http://www.w3.org/Graphics/SVG/1.1/DTD/svg11.dtd">
<svg version="1.1" id="Layer_1" xmlns="http://www.w3.org/2000/svg" xmlns:xlink="http://www.w3.org/1999/xlink" x="0px" y="0px"
	 viewBox="0 0 125.39 127.08" enable-background="new 0 0 125.39 127.08" xml:space="preserve">
<g>
	<path d="M125.39,82.43H98.33l-4.29-26.98L78.18,82.24h-2.97c-1.8-3.1-2.51-7.64-2.51-10.42c0-4.61,0.33-9.1,0.33-14.95
		c0-7.76-2.28-11.92-8.37-13.38v-0.23c12.94-1.8,18.81-10.36,18.81-22.42C83.47,3.71,72.08,0,57.15,0H16.98L0,80.4h21.35l6.18-29.25
		h14.19c7.57,0,10.67,3.71,10.67,10.79c0,5.39-0.56,9.66-0.56,13.82c0,1.54,0.35,5.11,1.39,6.49c-0.01,0,15.43,16.28,15.43,16.28
		l-13.28,28.55c0,0,0,0,28.4-16.87l21.16,16.26l-3.95-26.93L125.39,82.43z M48.1,36.09H31.13l4.06-19.38h15.79
		c5.62,0,11.47,1.46,11.47,8.34C62.45,33.72,55.79,36.09,48.1,36.09z"/>
	<polygon fill="#FFFFFF" points="112.93,86.36 94.97,86.36 91.87,66.83 80.42,86.17 62.32,86.17 73.33,97.76 64.27,117.21 
		84.05,105.46 99.63,117.44 96.74,97.69 	"/>
</g>
</svg>
