<?xml version="1.0" encoding="utf-8"?>
<!-- Generator: Adobe Illustrator 19.1.0, SVG Export Plug-In . SVG Version: 6.00 Build 0)  -->
<svg version="1.1" id="Layer_1" xmlns="http://www.w3.org/2000/svg" xmlns:xlink="http://www.w3.org/1999/xlink" x="0px" y="0px"
	 viewBox="0 0 22 22" style="enable-background:new 0 0 22 22;" xml:space="preserve">
<style type="text/css">
	.st0{fill:#FFFFFF;}
</style>
<rect class="st0" width="22" height="22"/>
<path d="M19,6.4c-0.6,0.2-1.1,0.4-1.8,0.5c0.6-0.4,1.1-1,1.4-1.7c-0.6,0.3-1.3,0.6-2,0.7c-0.6-0.6-1.4-1-2.2-1c-1.7,0-3.1,1.4-3.1,3
	c0,0.2,0,0.5,0.1,0.7C8.8,8.6,6.6,7.4,5,5.6C4.8,6,4.6,6.5,4.6,7.1c0,1.1,0.5,2,1.4,2.5c-0.5,0-1-0.2-1.4-0.4c0,0,0,0,0,0
	c0,1.5,1.1,2.7,2.5,3c-0.3,0.1-0.5,0.1-0.8,0.1c-0.2,0-0.4,0-0.6-0.1c0.4,1.2,1.5,2.1,2.9,2.1c-1.1,0.8-2.4,1.3-3.8,1.3
	c-0.2,0-0.5,0-0.7,0C5.4,16.5,7,17,8.7,17c5.7,0,8.8-4.6,8.8-8.6c0-0.1,0-0.3,0-0.4C18.1,7.6,18.6,7,19,6.4z"/>
</svg>
