<svg id="Layer_3" data-name="Layer 3" xmlns="http://www.w3.org/2000/svg" viewBox="0 0 60.91 56.07"><defs><style>.cls-1{fill:#040301;}.cls-2{fill:#ffab00;}.cls-3{fill:#fff;}</style></defs><title>NYC</title><path class="cls-1" d="M60.59,55.71a1.39,1.39,0,0,1-2,0,1.4,1.4,0,0,1,0-2A1.39,1.39,0,1,1,60.59,55.71Zm-1.84-1.83a1.21,1.21,0,0,0,0,1.7,1.21,1.21,0,0,0,1.7,0A1.2,1.2,0,0,0,58.75,53.88ZM59.57,54A1.15,1.15,0,0,1,60,54a0.38,0.38,0,0,1,.24.39,0.33,0.33,0,0,1-.15.3,0.61,0.61,0,0,1-.22.07,0.36,0.36,0,0,1,.26.15,0.42,0.42,0,0,1,.08.23v0.11s0,0.07,0,.11a0.27,0.27,0,0,0,0,.08v0H60v-0.2a0.36,0.36,0,0,0-.15-0.35,0.65,0.65,0,0,0-.3,0H59.31v0.6H59V54h0.54Zm0.29,0.25a0.68,0.68,0,0,0-.33-0.06H59.31V54.7h0.25a0.71,0.71,0,0,0,.26,0A0.23,0.23,0,0,0,60,54.43,0.23,0.23,0,0,0,59.87,54.21Z" transform="translate(-0.11 -0.05)"/><path class="cls-2" d="M50.43,1.25H10.9a9.33,9.33,0,0,0-9.59,9.26V45.63a9.27,9.27,0,0,0,9.49,9.23H50.33a9.27,9.27,0,0,0,9.5-9.23V10.52A9.23,9.23,0,0,0,50.43,1.25Z" transform="translate(-0.11 -0.05)"/><path class="cls-1" d="M50.43,0.05H10.9A10.65,10.65,0,0,0,.11,10.52V45.63A10.45,10.45,0,0,0,10.8,56.07H50.33A10.45,10.45,0,0,0,61,45.63V10.52A10.42,10.42,0,0,0,50.43.05Zm9.4,45.58a9.27,9.27,0,0,1-9.5,9.23H10.8a9.27,9.27,0,0,1-9.49-9.23V10.52A9.33,9.33,0,0,1,10.9,1.25H50.43a9.23,9.23,0,0,1,9.4,9.26V45.63Z" transform="translate(-0.11 -0.05)"/><path class="cls-3" d="M48.87,34.3H43.81s-0.59-3.71-.87-5.51l-3.23,5.46H34.6l3.1,3.27L35.15,43l5.58-3.31,4.39,3.38L44.31,37.5Z" transform="translate(-0.11 -0.05)"/><path class="cls-1" d="M52.39,33.19H44.76l-1.21-7.61-0.78,1.32-3.69,6.23H38.24a6.52,6.52,0,0,1-.71-2.94c0-1.3.09-2.57,0.09-4.22,0-2.19-.64-3.36-2.36-3.77V22.14c3.65-.51,5.3-2.92,5.3-6.32,0-4.83-3.21-5.88-7.42-5.88H21.82L17,32.62h6l1.74-8.25h4c2.14,0,3,1,3,3,0,1.52-.16,2.73-0.16,3.9A4,4,0,0,0,32,33.14h0l4.36,4.59-3.75,8.05,8-4.76,6,4.58L45.5,38ZM30.59,20.12H25.81L27,14.66H31.4c1.58,0,3.23.41,3.23,2.35C34.64,19.46,32.76,20.12,30.59,20.12ZM40.73,39.69L35.15,43l2.55-5.48-3.1-3.27h5.1l3.23-5.46c0.28,1.79.87,5.51,0.87,5.51h5.06l-4.57,3.2,0.82,5.57Z" transform="translate(-0.11 -0.05)"/></svg>