<?xml version="1.0" encoding="utf-8"?>
<!-- Generator: Adobe Illustrator 19.1.0, SVG Export Plug-In . SVG Version: 6.00 Build 0)  -->
<svg version="1.1" id="Layer_1" xmlns="http://www.w3.org/2000/svg" xmlns:xlink="http://www.w3.org/1999/xlink" x="0px" y="0px"
	 viewBox="0 0 22 22" style="enable-background:new 0 0 22 22;" xml:space="preserve">
<style type="text/css">
	.st0{fill:#FFFFFF;}
</style>
<rect class="st0" width="22" height="22"/>
<g>
	<path id="Triangle" class="st0" d="M9.1,13.2l4.9-2.4L9.1,8.4V13.2z"/>
	<g id="Lozenge">
		<g>
			<path d="M19.8,7.6c0,0-0.2-1.2-0.7-1.7c-0.7-0.7-1.5-0.7-1.8-0.7C14.8,5,11,5,11,5h0c0,0-3.8,0-6.3,0.2c-0.4,0-1.1,0-1.8,0.7
				C2.4,6.4,2.2,7.6,2.2,7.6S2,9,2,10.4v1.3c0,1.4,0.2,2.8,0.2,2.8s0.2,1.2,0.7,1.7c0.7,0.7,1.6,0.7,2,0.7C6.3,17,11,17,11,17
				s3.8,0,6.3-0.2c0.4,0,1.1,0,1.8-0.7c0.5-0.5,0.7-1.7,0.7-1.7S20,13,20,11.6v-1.3C20,9,19.8,7.6,19.8,7.6z M9.1,13.2l0-4.8
				l4.9,2.4L9.1,13.2z"/>
		</g>
	</g>
</g>
</svg>
